HIERARCHY
ROOT Hips
{
	OFFSET 0.000000 0.000000 0.000000
	CHANNELS 6 Xposition Yposition Zposition Zrotation Yrotation Xrotation 
	JOINT LHipJoint
	{
		OFFSET 0.000000 0.000000 0.000000
		CHANNELS 3 Zrotation Yrotation Xrotation
		JOINT LeftUpLeg
		{
			OFFSET 1.363060 -1.794630 0.839290
			CHANNELS 3 Zrotation Yrotation Xrotation
			JOINT LeftLeg
			{
				OFFSET 2.448110 -6.726130 0.000000
				CHANNELS 3 Zrotation Yrotation Xrotation
				JOINT LeftFoot
				{
					OFFSET 2.562200 -7.039590 0.000000
					CHANNELS 3 Zrotation Yrotation Xrotation
					JOINT LeftToeBase
					{
						OFFSET 0.157640 -0.433110 2.322550
						CHANNELS 3 Zrotation Yrotation Xrotation
						End Site
						{
							OFFSET 0.000000 0.000000 0.000000
						}
					}
				}
			}
		}
	}
	JOINT RHipJoint
	{
		OFFSET 0.000000 0.000000 0.000000
		CHANNELS 3 Zrotation Yrotation Xrotation
		JOINT RightUpLeg
		{
			OFFSET -1.305520 -1.794630 0.839290
			CHANNELS 3 Zrotation Yrotation Xrotation
			JOINT RightLeg
			{
				OFFSET -2.542530 -6.985550 0.000000
				CHANNELS 3 Zrotation Yrotation Xrotation
				JOINT RightFoot
				{
					OFFSET -2.568260 -7.056230 0.000000
					CHANNELS 3 Zrotation Yrotation Xrotation
					JOINT RightToeBase
					{
						OFFSET -0.164730 -0.452590 2.363150
						CHANNELS 3 Zrotation Yrotation Xrotation
						End Site
						{
							OFFSET 0.000000 0.000000 0.000000
						}
					}
				}
			}
		}
	}
}
MOTION
Frames: 16
Frame Time: 0.008333
6.015398 16.267549 1.620333 177.943212 -85.247102 -156.307032 -11.695313 0.800726 0.108814 -7.734999 -1.083803 -38.684845 1.008562 3.895856 73.919462 3.936093 22.035951 -20.976599 -4.863600 -0.000000 -14.114400 8.410980 -1.136388 1.866878 14.032379 8.332309 -31.759563 2.120713 -2.226015 45.168658 -2.482837 -2.759569 -29.933024 2.152000 -0.000000 -16.537700
5.764861 16.349062 1.604033 175.023786 -85.257250 -153.338814 -11.532896 0.608929 0.352936 -7.968561 -1.761701 -39.808346 0.836542 3.748184 72.074234 3.977786 21.815655 -21.350517 -4.949800 -0.000000 -13.805400 8.391670 -1.235342 1.851296 13.754133 8.131563 -29.823389 2.159564 -2.027011 43.064936 -2.455226 -2.929885 -29.125263 2.117500 -0.000000 -17.039900
5.510188 16.440861 1.588936 172.338198 -85.306292 -150.582266 -11.354115 0.427798 0.612703 -8.150352 -2.424321 -40.812274 0.651227 3.570565 69.821044 4.022865 21.596468 -21.528111 -4.955500 0.000000 -13.729000 8.372740 -1.342486 1.849929 13.489434 7.955856 -27.857763 2.180682 -1.821446 40.792228 -2.410403 -3.158464 -27.982843 2.052800 0.000001 -17.940400
5.251923 16.542217 1.575330 169.870663 -85.394681 -148.037949 -11.164231 0.263029 0.881791 -8.279051 -3.056769 -41.663519 0.457725 3.364497 67.154381 4.063452 21.349218 -21.466654 -4.858900 -0.000000 -13.915500 8.355922 -1.459639 1.851399 13.248477 7.773266 -25.856227 2.184340 -1.613938 38.360359 -2.338460 -3.413621 -26.448390 1.936000 0.000001 -19.375900
4.990463 16.652170 1.563360 167.552473 -85.520789 -145.653798 -10.969215 0.120034 1.153431 -8.362582 -3.644029 -42.325000 0.260628 3.130719 64.068687 4.088945 21.037043 -21.117061 -4.635300 0.000000 -14.368800 8.343691 -1.589748 1.844091 13.033689 7.547448 -23.811230 2.171542 -1.410585 35.779813 -2.229311 -3.660038 -24.460433 1.745700 0.000000 -21.506200
4.726264 16.769330 1.553081 165.299961 -85.682607 -143.360645 -10.775352 0.003066 1.421936 -8.413779 -4.171537 -42.766671 0.064753 2.869791 60.564702 4.086599 20.621549 -20.417888 -4.259101 0.000000 -15.179800 8.339098 -1.736079 1.818810 12.843597 7.244628 -21.726945 2.144179 -1.219383 33.072170 -2.075713 -3.863908 -21.969327 1.467400 -0.000000 -24.443200
4.459928 16.892127 1.544165 162.839989 -85.877170 -140.904526 -10.586479 -0.085318 1.679779 -8.463061 -4.632466 -42.947671 -0.126390 2.580792 56.643858 4.043760 20.073837 -19.311165 -3.715401 -0.000000 -16.390800 8.350240 -1.901541 1.763627 12.658660 6.819995 -19.608114 2.104818 -1.051213 30.272143 -1.873376 -3.988579 -18.946721 1.098100 -0.000000 -28.237100
4.192564 17.018942 1.535601 159.662912 -86.094747 -137.808697 -10.400779 -0.144033 1.913148 -8.562074 -5.021122 -42.804745 -0.311898 2.261534 52.305431 3.948963 19.380680 -17.749613 -3.006800 0.000000 -17.999300 8.394254 -2.086708 1.662843 12.435943 6.219699 -17.453425 2.055522 -0.919911 27.429382 -1.622649 -3.993117 -15.395089 0.652900 -0.000000 -32.875500
3.924675 17.147747 1.526195 155.252485 -86.312795 -133.585348 -10.209264 -0.168905 2.108117 -8.768440 -5.331077 -42.277823 -0.493545 1.911537 47.557138 3.793597 18.548716 -15.698950 -2.153400 -0.000000 -20.032200 8.497781 -2.286715 1.503473 12.120069 5.391741 -15.273603 1.998176 -0.838356 24.625711 -1.331404 -3.821230 -11.392065 0.175899 -0.000000 -37.993799
3.655353 17.274404 1.518170 151.017442 -86.516899 -129.577794 -10.041101 -0.152043 2.287873 -8.980207 -5.521000 -41.524502 -0.670836 1.553569 42.513309 3.569104 17.557255 -13.172105 -1.193300 0.000000 -22.482900 8.624002 -2.494055 1.319980 11.810516 4.451059 -13.175219 1.936451 -0.797062 21.955121 -1.033895 -3.515600 -7.061048 -0.267500 -0.000000 -43.065100
3.385287 17.396796 1.510705 146.765235 -86.683007 -125.617804 -9.893565 -0.093515 2.441877 -9.241002 -5.592012 -40.517631 -0.851450 1.193338 37.229927 3.277504 16.442349 -10.200614 -0.187800 0.000000 -25.268600 8.786589 -2.698516 1.100337 11.454710 3.361241 -11.176038 1.872579 -0.800335 19.526610 -0.744981 -3.023861 -2.575824 -0.609400 -0.000000 -47.583300
3.114509 17.512138 1.504403 143.168329 -86.798334 -122.361573 -9.782549 -0.000381 2.573480 -9.522998 -5.529494 -39.333940 -1.041194 0.845491 31.833069 2.925687 15.221875 -6.865649 0.790500 0.000000 -28.287800 8.965370 -2.892393 0.855066 11.069720 2.165691 -9.326690 1.808721 -0.840734 17.437056 -0.487481 -2.357755 1.873903 -0.791400 -0.000000 -51.189200
2.842985 17.618052 1.499996 140.848644 -86.866829 -120.409172 -9.725321 0.110644 2.684355 -9.793730 -5.318305 -38.075582 -1.243193 0.523874 26.490861 2.526769 13.897352 -3.294643 1.660800 0.000000 -31.418201 9.132345 -3.072747 0.599837 10.686185 0.924156 -7.669094 1.746588 -0.907558 15.756129 -0.280701 -1.574303 6.099946 -0.791000 0.000001 -53.732700
2.570619 17.712776 1.498092 140.155613 -86.903344 -120.084547 -9.731366 0.219942 2.774561 -10.032114 -4.944809 -36.865987 -1.458333 0.239929 21.403157 2.098986 12.443824 0.325557 2.335900 0.000000 -34.392300 9.261996 -3.239785 0.355265 10.340857 -0.293436 -6.235332 1.686214 -0.988512 14.517638 -0.137277 -0.782918 9.933732 -0.638900 0.000000 -55.284900
2.298204 17.795265 1.498789 141.133173 -86.915670 -121.435788 -9.799379 0.314444 2.827816 -10.255552 -4.365748 -35.787585 -1.685890 0.004167 16.757811 1.658435 10.812529 3.842173 2.746600 -0.000001 -37.429000 9.342839 -3.391999 0.125217 10.051225 -1.464578 -5.015531 1.626062 -1.076037 13.737403 -0.056990 -0.091109 13.246469 -0.403700 0.000000 -56.048500
2.025591 17.865108 1.501757 143.597365 -86.904208 -124.251558 -9.913512 0.390424 2.848188 -10.492939 -3.581561 -34.957158 -1.925739 -0.181392 12.723253 1.224747 8.955292 7.025504 2.829600 -0.000000 -40.138300 9.371067 -3.528134 -0.070293 9.832062 -2.531622 -4.030247 1.560195 -1.160891 13.401903 -0.038324 0.339690 15.941427 -0.198000 0.000000 -56.314299
